<svg xmlns="http://www.w3.org/2000/svg" viewBox="0 0 397 397"><path d="M88.5 333v64h69v-64z"/><path d="M190.6 61H55.753C49.137 61 43.5 65.5 43.5 72.115V397h29v-72.683c0-4.418 3.873-7.317 8.291-7.317h84.776c4.418 0 7.933 2.9 7.933 7.317V397h29V72.115C202.5 65.5 197.221 61 190.6 61zm-27.152 207H82.91a8 8 0 010-16h80.538a8 8 0 010 16zm0-58H82.91a8 8 0 010-16h80.538a8 8 0 010 16zm0-58H82.91a8 8 0 010-16h80.538a8 8 0 010 16zM156.164 0h-65.97c-6.414-.046-11.65 5.116-11.696 11.53-.001.101 0 .202.002.302V45h90V11.832C168.5 5.215 162.781 0 156.164 0zM341.873 172H218.5v225h135V183.385c0-6.617-5.01-11.385-11.627-11.385zm-17.91 177h-74.15a8 8 0 010-16h74.15a8 8 0 010 16zm0-58h-74.15a8 8 0 010-16h74.15a8 8 0 010 16zm0-58h-74.15a8 8 0 010-16h74.15a8 8 0 010 16z"/></svg>